<?xml version="1.0" standalone="no"?>
<!DOCTYPE svg PUBLIC "-//W3C//DTD SVG 20010904//EN"
 "http://www.w3.org/TR/2001/REC-SVG-20010904/DTD/svg10.dtd">
<svg version="1.0" xmlns="http://www.w3.org/2000/svg"
 width="495.000000pt" height="495.000000pt" viewBox="0 0 495.000000 495.000000"
 preserveAspectRatio="xMidYMid meet">
<metadata>
Created by potrace 1.14, written by Peter Selinger 2001-2017
</metadata>
<g transform="translate(0.000000,495.000000) scale(0.100000,-0.100000)"
fill="#000000" stroke="none">
<path d="M223 4025 c-373 -104 -276 -475 267 -1015 818 -815 2390 -1717 3490
-2004 231 -60 342 -78 516 -83 174 -6 292 10 333 45 33 28 121 269 121 330 0
29 -87 196 -145 277 -146 204 -383 448 -660 680 l-70 58 -16 -104 c-10 -57
-27 -145 -40 -194 l-22 -90 35 -50 c105 -147 136 -259 94 -338 -37 -69 -113
-97 -264 -98 -96 0 -122 3 -262 32 -928 190 -2460 1161 -2735 1734 -47 97 -53
157 -23 215 41 79 146 111 323 100 l80 -6 86 81 c47 45 113 101 147 125 34 25
62 48 62 51 0 4 -8 9 -17 12 -10 3 -83 29 -163 57 -176 63 -381 121 -538 154
-173 36 -182 37 -372 42 -134 3 -187 0 -227 -11z"/>
<path d="M2379 3986 c-2 -2 -37 -7 -78 -10 -88 -8 -270 -54 -361 -91 -201 -82
-375 -198 -525 -351 -116 -118 -201 -238 -278 -392 l-61 -123 114 -115 c349
-352 868 -708 1465 -1004 354 -176 608 -276 880 -345 96 -25 133 -30 143 -22
26 21 142 204 175 277 58 126 64 142 90 230 62 207 79 400 53 605 -44 359
-189 658 -438 902 -99 98 -137 129 -246 200 -157 104 -364 185 -553 218 -82
15 -370 30 -380 21z"/>
<path d="M984 2375 c32 -522 341 -996 808 -1240 177 -92 334 -140 542 -166
189 -23 438 3 632 67 91 29 284 119 284 132 0 4 -82 44 -182 87 -270 117 -594
280 -943 475 -292 163 -721 443 -1021 667 -62 46 -115 83 -119 83 -4 0 -5 -47
-1 -105z"/>
</g>
</svg>
