<svg data-v-423bf9ae="" xmlns="http://www.w3.org/2000/svg" viewBox="0 0 653 90" class="iconLeft"><!----><!----><!----><g data-v-423bf9ae="" id="9b2639c4-b7b5-4105-9b81-9f8986911c0a" fill="white" transform="matrix(5.102040717026833,0,0,5.102040717026833,160.67279977353596,5)"><path d="M11.27 5.05L11.27 11.33L11.27 11.33Q11.27 11.86 11.32 12.19L11.32 12.19L11.32 12.19Q11.37 12.52 11.53 12.69L11.53 12.69L11.53 12.69Q11.69 12.87 11.98 12.94L11.98 12.94L11.98 12.94Q12.26 13.01 12.74 13.02L12.74 13.02L12.74 13.58L7.60 13.58L7.60 13.02L7.60 13.02Q8.12 13.01 8.44 12.94L8.44 12.94L8.44 12.94Q8.75 12.87 8.93 12.70L8.93 12.70L8.93 12.70Q9.10 12.53 9.16 12.22L9.16 12.22L9.16 12.22Q9.21 11.91 9.21 11.42L9.21 11.42L9.21 8.50L4.02 8.50L4.02 11.33L4.02 11.33Q4.02 11.86 4.07 12.19L4.07 12.19L4.07 12.19Q4.13 12.52 4.30 12.69L4.30 12.69L4.30 12.69Q4.47 12.87 4.78 12.94L4.78 12.94L4.78 12.94Q5.10 13.01 5.61 13.02L5.61 13.02L5.61 13.58L0.49 13.58L0.49 13.02L0.49 13.02Q0.97 13.01 1.25 12.94L1.25 12.94L1.25 12.94Q1.54 12.87 1.69 12.70L1.69 12.70L1.69 12.70Q1.85 12.53 1.90 12.22L1.90 12.22L1.90 12.22Q1.96 11.91 1.96 11.42L1.96 11.42L1.96 4.96L1.96 4.96Q1.96 4.47 1.91 4.16L1.91 4.16L1.91 4.16Q1.86 3.86 1.72 3.69L1.72 3.69L1.72 3.69Q1.58 3.51 1.32 3.45L1.32 3.45L1.32 3.45Q1.06 3.39 0.64 3.36L0.64 3.36L0.64 2.80L5.47 2.80L5.47 3.36L5.47 3.36Q5.00 3.37 4.71 3.44L4.71 3.44L4.71 3.44Q4.42 3.51 4.27 3.70L4.27 3.70L4.27 3.70Q4.12 3.88 4.07 4.20L4.07 4.20L4.07 4.20Q4.02 4.52 4.02 5.05L4.02 5.05L4.02 7.63L9.21 7.63L9.21 4.96L9.21 4.96Q9.21 4.47 9.16 4.16L9.16 4.16L9.16 4.16Q9.10 3.86 8.95 3.69L8.95 3.69L8.95 3.69Q8.79 3.51 8.51 3.45L8.51 3.45L8.51 3.45Q8.22 3.39 7.74 3.36L7.74 3.36L7.74 2.80L12.59 2.80L12.59 3.36L12.59 3.36Q12.17 3.37 11.91 3.44L11.91 3.44L11.91 3.44Q11.65 3.51 11.51 3.70L11.51 3.70L11.51 3.70Q11.37 3.88 11.32 4.20L11.32 4.20L11.32 4.20Q11.27 4.52 11.27 5.05L11.27 5.05ZM17.50 6.02L17.50 6.02L17.50 6.02Q18.34 6.02 19.09 6.31L19.09 6.31L19.09 6.31Q19.84 6.59 20.41 7.10L20.41 7.10L20.41 7.10Q20.97 7.60 21.30 8.29L21.30 8.29L21.30 8.29Q21.63 8.99 21.63 9.81L21.63 9.81L21.63 9.81Q21.63 10.67 21.30 11.38L21.30 11.38L21.30 11.38Q20.97 12.10 20.41 12.61L20.41 12.61L20.41 12.61Q19.84 13.13 19.09 13.43L19.09 13.43L19.09 13.43Q18.34 13.72 17.50 13.72L17.50 13.72L17.50 13.72Q16.67 13.72 15.93 13.43L15.93 13.43L15.93 13.43Q15.19 13.15 14.63 12.63L14.63 12.63L14.63 12.63Q14.07 12.11 13.75 11.39L13.75 11.39L13.75 11.39Q13.43 10.67 13.43 9.81L13.43 9.81L13.43 9.81Q13.43 8.99 13.75 8.29L13.75 8.29L13.75 8.29Q14.07 7.59 14.63 7.08L14.63 7.08L14.63 7.08Q15.19 6.58 15.93 6.30L15.93 6.30L15.93 6.30Q16.67 6.02 17.50 6.02ZM17.50 6.83L17.50 6.83L17.50 6.83Q17.08 6.83 16.73 7.05L16.73 7.05L16.73 7.05Q16.38 7.27 16.14 7.66L16.14 7.66L16.14 7.66Q15.89 8.05 15.76 8.60L15.76 8.60L15.76 8.60Q15.62 9.16 15.62 9.83L15.62 9.83L15.62 9.83Q15.62 10.53 15.76 11.09L15.76 11.09L15.76 11.09Q15.89 11.65 16.14 12.04L16.14 12.04L16.14 12.04Q16.38 12.43 16.72 12.65L16.72 12.65L16.72 12.65Q17.07 12.87 17.50 12.87L17.50 12.87L17.50 12.87Q17.93 12.87 18.29 12.65L18.29 12.65L18.29 12.65Q18.65 12.43 18.90 12.03L18.90 12.03L18.90 12.03Q19.15 11.63 19.29 11.07L19.29 11.07L19.29 11.07Q19.43 10.51 19.43 9.83L19.43 9.83L19.43 9.83Q19.43 9.16 19.29 8.61L19.29 8.61L19.29 8.61Q19.15 8.06 18.90 7.67L18.90 7.67L18.90 7.67Q18.65 7.27 18.29 7.05L18.29 7.05L18.29 7.05Q17.93 6.83 17.50 6.83ZM25.76 10.74L25.76 11.41L25.76 11.41Q25.76 11.96 25.81 12.27L25.81 12.27L25.81 12.27Q25.86 12.59 26.01 12.75L26.01 12.75L26.01 12.75Q26.17 12.92 26.46 12.97L26.46 12.97L26.46 12.97Q26.75 13.02 27.24 13.02L27.24 13.02L27.24 13.58L22.57 13.58L22.57 13.02L22.57 13.02Q22.99 12.99 23.24 12.94L23.24 12.94L23.24 12.94Q23.49 12.88 23.62 12.71L23.62 12.71L23.62 12.71Q23.74 12.54 23.78 12.23L23.78 12.23L23.78 12.23Q23.81 11.91 23.81 11.38L23.81 11.38L23.81 9.67L23.81 9.67Q23.81 8.81 23.77 8.29L23.77 8.29L23.77 8.29Q23.73 7.77 23.59 7.49L23.59 7.49L23.59 7.49Q23.45 7.21 23.19 7.12L23.19 7.12L23.19 7.12Q22.93 7.03 22.51 7.03L22.51 7.03L22.51 6.54L25.31 6.02L25.54 7.63L25.59 7.63L25.59 7.63Q25.97 6.89 26.59 6.45L26.59 6.45L26.59 6.45Q27.20 6.02 27.89 6.02L27.89 6.02L27.89 6.02Q28.42 6.02 28.76 6.29L28.76 6.29L28.76 6.29Q29.09 6.55 29.09 6.96L29.09 6.96L29.09 6.96Q29.09 7.41 28.83 7.71L28.83 7.71L28.83 7.71Q28.57 8.02 28.13 8.02L28.13 8.02L28.13 8.02Q27.92 8.02 27.75 7.94L27.75 7.94L27.75 7.94Q27.58 7.85 27.45 7.75L27.45 7.75L27.45 7.75Q27.31 7.64 27.18 7.55L27.18 7.55L27.18 7.55Q27.05 7.46 26.91 7.46L26.91 7.46L26.91 7.46Q26.64 7.46 26.40 7.81L26.40 7.81L26.40 7.81Q26.17 8.16 26.01 8.75L26.01 8.75L26.01 8.75Q25.90 9.17 25.83 9.70L25.83 9.70L25.83 9.70Q25.76 10.22 25.76 10.74L25.76 10.74ZM32.72 6.02L32.72 11.28L32.72 11.28Q32.72 11.84 32.76 12.18L32.76 12.18L32.76 12.18Q32.80 12.52 32.93 12.70L32.93 12.70L32.93 12.70Q33.05 12.88 33.29 12.94L33.29 12.94L33.29 12.94Q33.53 13.01 33.94 13.02L33.94 13.02L33.94 13.58L29.53 13.58L29.53 13.02L29.53 13.02Q29.92 13.01 30.16 12.93L30.16 12.93L30.16 12.93Q30.41 12.85 30.54 12.68L30.54 12.68L30.54 12.68Q30.67 12.50 30.72 12.19L30.72 12.19L30.72 12.19Q30.77 11.87 30.77 11.38L30.77 11.38L30.77 9.66L30.77 9.66Q30.77 8.85 30.74 8.32L30.74 8.32L30.74 8.32Q30.72 7.80 30.67 7.60L30.67 7.60L30.67 7.60Q30.60 7.25 30.36 7.14L30.36 7.14L30.36 7.14Q30.11 7.03 29.47 7.03L29.47 7.03L29.47 6.55L32.72 6.02ZM30.66 3.05L30.66 3.05L30.66 3.05Q30.66 2.59 30.98 2.28L30.98 2.28L30.98 2.28Q31.29 1.96 31.74 1.96L31.74 1.96L31.74 1.96Q32.20 1.96 32.52 2.28L32.52 2.28L32.52 2.28Q32.83 2.59 32.83 3.05L32.83 3.05L32.83 3.05Q32.83 3.50 32.52 3.81L32.52 3.81L32.52 3.81Q32.20 4.13 31.74 4.13L31.74 4.13L31.74 4.13Q31.29 4.13 30.98 3.81L30.98 3.81L30.98 3.81Q30.66 3.50 30.66 3.05ZM41.62 11.20L41.45 13.58L34.54 13.58L34.54 13.26L38.92 6.90L37.63 6.90L37.63 6.90Q37.03 6.90 36.65 6.95L36.65 6.95L36.65 6.95Q36.27 7 36.04 7.16L36.04 7.16L36.04 7.16Q35.81 7.32 35.69 7.60L35.69 7.60L35.69 7.60Q35.57 7.88 35.49 8.34L35.49 8.34L34.94 8.34L35.11 6.16L41.43 6.16L41.43 6.48L37.11 12.82L38.35 12.82L38.35 12.82Q39.07 12.82 39.55 12.76L39.55 12.76L39.55 12.76Q40.03 12.70 40.32 12.52L40.32 12.52L40.32 12.52Q40.61 12.35 40.78 12.03L40.78 12.03L40.78 12.03Q40.95 11.72 41.08 11.20L41.08 11.20L41.62 11.20ZM46.72 6.02L46.72 6.02L46.72 6.02Q47.56 6.02 48.31 6.31L48.31 6.31L48.31 6.31Q49.06 6.59 49.62 7.10L49.62 7.10L49.62 7.10Q50.19 7.60 50.52 8.29L50.52 8.29L50.52 8.29Q50.85 8.99 50.85 9.81L50.85 9.81L50.85 9.81Q50.85 10.67 50.52 11.38L50.52 11.38L50.52 11.38Q50.19 12.10 49.62 12.61L49.62 12.61L49.62 12.61Q49.06 13.13 48.31 13.43L48.31 13.43L48.31 13.43Q47.56 13.72 46.72 13.72L46.72 13.72L46.72 13.72Q45.89 13.72 45.15 13.43L45.15 13.43L45.15 13.43Q44.41 13.15 43.85 12.63L43.85 12.63L43.85 12.63Q43.29 12.11 42.97 11.39L42.97 11.39L42.97 11.39Q42.64 10.67 42.64 9.81L42.64 9.81L42.64 9.81Q42.64 8.99 42.97 8.29L42.97 8.29L42.97 8.29Q43.29 7.59 43.85 7.08L43.85 7.08L43.85 7.08Q44.41 6.58 45.15 6.30L45.15 6.30L45.15 6.30Q45.89 6.02 46.72 6.02ZM46.72 6.83L46.72 6.83L46.72 6.83Q46.30 6.83 45.95 7.05L45.95 7.05L45.95 7.05Q45.60 7.27 45.35 7.66L45.35 7.66L45.35 7.66Q45.11 8.05 44.98 8.60L44.98 8.60L44.98 8.60Q44.84 9.16 44.84 9.83L44.84 9.83L44.84 9.83Q44.84 10.53 44.98 11.09L44.98 11.09L44.98 11.09Q45.11 11.65 45.35 12.04L45.35 12.04L45.35 12.04Q45.60 12.43 45.94 12.65L45.94 12.65L45.94 12.65Q46.28 12.87 46.72 12.87L46.72 12.87L46.72 12.87Q47.15 12.87 47.51 12.65L47.51 12.65L47.51 12.65Q47.87 12.43 48.12 12.03L48.12 12.03L48.12 12.03Q48.37 11.63 48.51 11.07L48.51 11.07L48.51 11.07Q48.65 10.51 48.65 9.83L48.65 9.83L48.65 9.83Q48.65 9.16 48.51 8.61L48.51 8.61L48.51 8.61Q48.37 8.06 48.12 7.67L48.12 7.67L48.12 7.67Q47.87 7.27 47.51 7.05L47.51 7.05L47.51 7.05Q47.15 6.83 46.72 6.83ZM54.96 9.37L54.96 11.30L54.96 11.30Q54.96 11.87 55.00 12.20L55.00 12.20L55.00 12.20Q55.03 12.53 55.15 12.71L55.15 12.71L55.15 12.71Q55.27 12.88 55.52 12.94L55.52 12.94L55.52 12.94Q55.76 12.99 56.18 13.02L56.18 13.02L56.18 13.58L51.77 13.58L51.77 13.02L51.77 13.02Q52.18 12.99 52.42 12.94L52.42 12.94L52.42 12.94Q52.67 12.88 52.80 12.71L52.80 12.71L52.80 12.71Q52.93 12.54 52.98 12.24L52.98 12.24L52.98 12.24Q53.02 11.93 53.02 11.40L53.02 11.40L53.02 9.65L53.02 9.65Q53.02 8.82 52.99 8.31L52.99 8.31L52.99 8.31Q52.96 7.80 52.92 7.62L52.92 7.62L52.92 7.62Q52.88 7.43 52.81 7.31L52.81 7.31L52.81 7.31Q52.74 7.20 52.60 7.13L52.60 7.13L52.60 7.13Q52.46 7.07 52.25 7.05L52.25 7.05L52.25 7.05Q52.04 7.03 51.72 7.03L51.72 7.03L51.72 6.55L54.42 6.02L54.60 7.25L54.66 7.25L54.66 7.25Q55.12 6.66 55.75 6.34L55.75 6.34L55.75 6.34Q56.38 6.02 57.13 6.02L57.13 6.02L57.13 6.02Q58.03 6.02 58.58 6.26L58.58 6.26L58.58 6.26Q59.14 6.51 59.57 7.08L59.57 7.08L59.57 7.08Q59.81 7.41 59.99 7.92L59.99 7.92L59.99 7.92Q60.17 8.43 60.17 9.32L60.17 9.32L60.17 11.30L60.17 11.30Q60.17 11.87 60.21 12.20L60.21 12.20L60.21 12.20Q60.24 12.53 60.36 12.71L60.36 12.71L60.36 12.71Q60.48 12.88 60.72 12.94L60.72 12.94L60.72 12.94Q60.96 12.99 61.36 13.02L61.36 13.02L61.36 13.58L56.98 13.58L56.98 13.02L56.98 13.02Q57.40 13.01 57.65 12.94L57.65 12.94L57.65 12.94Q57.89 12.88 58.02 12.71L58.02 12.71L58.02 12.71Q58.14 12.54 58.18 12.23L58.18 12.23L58.18 12.23Q58.23 11.91 58.23 11.40L58.23 11.40L58.23 9.49L58.23 9.49Q58.23 8.78 58.14 8.29L58.14 8.29L58.14 8.29Q58.06 7.80 57.87 7.50L57.87 7.50L57.87 7.50Q57.68 7.20 57.37 7.06L57.37 7.06L57.37 7.06Q57.06 6.93 56.60 6.93L56.60 6.93L56.60 6.93Q56.15 6.93 55.83 7.18L55.83 7.18L55.83 7.18Q55.51 7.43 55.27 7.88L55.27 7.88L55.27 7.88Q55.15 8.13 55.06 8.53L55.06 8.53L55.06 8.53Q54.96 8.93 54.96 9.37L54.96 9.37ZM63.77 5.04L66.01 11.17L67.83 6.51L67.83 6.51Q68.10 5.82 68.26 5.39L68.26 5.39L68.26 5.39Q68.42 4.96 68.50 4.68L68.50 4.68L68.50 4.68Q68.59 4.40 68.61 4.23L68.61 4.23L68.61 4.23Q68.64 4.06 68.64 3.91L68.64 3.91L68.64 3.91Q68.64 3.57 68.39 3.46L68.39 3.46L68.39 3.46Q68.14 3.36 67.38 3.36L67.38 3.36L67.38 2.80L71.36 2.80L71.36 3.36L71.36 3.36Q70.20 3.36 69.75 4.49L69.75 4.49L66.07 13.72L65.03 13.72L61.68 5.54L61.68 5.54Q61.40 4.89 61.18 4.47L61.18 4.47L61.18 4.47Q60.96 4.05 60.70 3.80L60.70 3.80L60.70 3.80Q60.45 3.56 60.15 3.46L60.15 3.46L60.15 3.46Q59.85 3.37 59.44 3.37L59.44 3.37L59.44 2.80L64.74 2.80L64.74 3.37L64.74 3.37Q64.37 3.39 64.13 3.42L64.13 3.42L64.13 3.42Q63.88 3.44 63.74 3.51L63.74 3.51L63.74 3.51Q63.60 3.57 63.55 3.68L63.55 3.68L63.55 3.68Q63.49 3.78 63.49 3.93L63.49 3.93L63.49 3.93Q63.49 4.13 63.56 4.40L63.56 4.40L63.56 4.40Q63.63 4.66 63.77 5.04L63.77 5.04ZM74.54 6.02L74.54 11.28L74.54 11.28Q74.54 11.84 74.58 12.18L74.58 12.18L74.58 12.18Q74.62 12.52 74.75 12.70L74.75 12.70L74.75 12.70Q74.87 12.88 75.11 12.94L75.11 12.94L75.11 12.94Q75.35 13.01 75.75 13.02L75.75 13.02L75.75 13.58L71.34 13.58L71.34 13.02L71.34 13.02Q71.74 13.01 71.98 12.93L71.98 12.93L71.98 12.93Q72.23 12.85 72.36 12.68L72.36 12.68L72.36 12.68Q72.49 12.50 72.54 12.19L72.54 12.19L72.54 12.19Q72.59 11.87 72.59 11.38L72.59 11.38L72.59 9.66L72.59 9.66Q72.59 8.85 72.56 8.32L72.56 8.32L72.56 8.32Q72.53 7.80 72.49 7.60L72.49 7.60L72.49 7.60Q72.42 7.25 72.18 7.14L72.18 7.14L72.18 7.14Q71.93 7.03 71.29 7.03L71.29 7.03L71.29 6.55L74.54 6.02ZM72.48 3.05L72.48 3.05L72.48 3.05Q72.48 2.59 72.79 2.28L72.79 2.28L72.79 2.28Q73.11 1.96 73.56 1.96L73.56 1.96L73.56 1.96Q74.02 1.96 74.33 2.28L74.33 2.28L74.33 2.28Q74.65 2.59 74.65 3.05L74.65 3.05L74.65 3.05Q74.65 3.50 74.33 3.81L74.33 3.81L74.33 3.81Q74.02 4.13 73.56 4.13L73.56 4.13L73.56 4.13Q73.11 4.13 72.79 3.81L72.79 3.81L72.79 3.81Q72.48 3.50 72.48 3.05ZM83.16 11.79L83.55 12.28L83.55 12.28Q82.28 13.72 80.37 13.72L80.37 13.72L80.37 13.72Q79.51 13.72 78.80 13.45L78.80 13.45L78.80 13.45Q78.09 13.17 77.59 12.68L77.59 12.68L77.59 12.68Q77.08 12.18 76.80 11.49L76.80 11.49L76.80 11.49Q76.52 10.81 76.52 9.97L76.52 9.97L76.52 9.97Q76.52 9.10 76.82 8.38L76.82 8.38L76.82 8.38Q77.11 7.66 77.65 7.13L77.65 7.13L77.65 7.13Q78.19 6.61 78.93 6.31L78.93 6.31L78.93 6.31Q79.66 6.02 80.54 6.02L80.54 6.02L80.54 6.02Q82.03 6.02 82.85 6.82L82.85 6.82L82.85 6.82Q83.68 7.62 83.68 9.06L83.68 9.06L83.68 9.06Q83.68 9.28 83.61 9.33L83.61 9.33L83.61 9.33Q83.54 9.38 83.22 9.38L83.22 9.38L78.71 9.38L78.71 9.38Q78.65 9.51 78.65 9.84L78.65 9.84L78.65 9.84Q78.65 11.21 79.25 12.01L79.25 12.01L79.25 12.01Q79.84 12.81 80.86 12.81L80.86 12.81L80.86 12.81Q81.45 12.81 82.03 12.54L82.03 12.54L82.03 12.54Q82.61 12.28 83.16 11.79L83.16 11.79ZM78.81 8.60L80.84 8.60L80.84 8.60Q81.40 8.60 81.56 8.53L81.56 8.53L81.56 8.53Q81.72 8.47 81.72 8.23L81.72 8.23L81.72 8.23Q81.72 7.62 81.37 7.22L81.37 7.22L81.37 7.22Q81.02 6.83 80.49 6.83L80.49 6.83L80.49 6.83Q79.88 6.83 79.42 7.33L79.42 7.33L79.42 7.33Q78.95 7.83 78.81 8.60L78.81 8.60ZM90.27 8.75L88.38 13.72L87.33 13.72L85.41 7.97L85.41 7.97Q85.19 7.29 84.90 7.02L84.90 7.02L84.90 7.02Q84.60 6.75 84.11 6.72L84.11 6.72L84.11 6.16L88.12 6.16L88.12 6.72L88.12 6.72Q87.61 6.73 87.42 6.87L87.42 6.87L87.42 6.87Q87.22 7 87.22 7.32L87.22 7.32L87.22 7.32Q87.22 7.48 87.26 7.66L87.26 7.66L87.26 7.66Q87.30 7.84 87.37 8.08L87.37 8.08L88.26 11.35L88.31 11.35L90.27 6.16L91.42 6.16L92.89 11.35L92.96 11.35L94.08 8.46L94.08 8.46Q94.22 8.11 94.28 7.85L94.28 7.85L94.28 7.85Q94.33 7.59 94.33 7.39L94.33 7.39L94.33 7.39Q94.33 7.03 94.09 6.87L94.09 6.87L94.09 6.87Q93.86 6.72 93.45 6.72L93.45 6.72L93.45 6.16L96.46 6.16L96.46 6.72L96.46 6.72Q96.21 6.72 96.04 6.78L96.04 6.78L96.04 6.78Q95.87 6.83 95.70 7.04L95.70 7.04L95.70 7.04Q95.54 7.25 95.34 7.69L95.34 7.69L95.34 7.69Q95.14 8.12 94.85 8.88L94.85 8.88L92.92 13.72L91.81 13.72L90.33 8.75L90.27 8.75Z"></path></g><!----><g data-v-423bf9ae="" id="d9c68a2c-6cb1-40ad-95ed-e04147dfbfc2" transform="matrix(1.4316772400677338,0,0,1.4316772400677338,0.41374694523725,1.000807303493282)" stroke="none" fill="white"><path d="M81.978 34.831a32.359 32.359 0 0 1-1.53 7.698c2.648 3.388 3.696 6.219 2.66 8.015-2.815 4.875-19.92.271-38.204-10.286C26.62 29.702 14.08 17.191 16.895 12.315c1.036-1.795 4.01-2.304 8.265-1.705a32.352 32.352 0 0 1 5.903-5.175C15.379-.545 3.356-1.892.589 2.901c-4.202 7.277 14.515 25.949 41.805 41.705 27.289 15.756 52.818 22.629 57.02 15.352 2.768-4.794-4.412-14.534-17.436-25.127z"></path><path d="M21.806 20.559a45.182 45.182 0 0 0 2.447 2.631c5.199 5.187 12.872 10.82 21.603 15.861 8.731 5.042 17.446 8.869 24.538 10.778 1.282.346 2.442.608 3.493.802a30.3 30.3 0 0 0 6.735-19.091c0-16.806-13.624-30.43-30.43-30.43-12.933 0-23.981 8.07-28.386 19.449zM19.765 31.319l-.002.221c0 16.806 13.624 30.431 30.43 30.431a30.289 30.289 0 0 0 15.411-4.188c-7.564-3.074-15.675-7.069-23.779-11.749-8.103-4.677-15.617-9.702-22.06-14.715z"></path></g><!----></svg>